<?xml version="1.0" encoding="UTF-8" standalone="no"?>
<!-- Created with Inkscape (http://www.inkscape.org/) -->

<svg
   xmlns:dc="http://purl.org/dc/elements/1.1/"
   xmlns:cc="http://creativecommons.org/ns#"
   xmlns:rdf="http://www.w3.org/1999/02/22-rdf-syntax-ns#"
   xmlns:svg="http://www.w3.org/2000/svg"
   xmlns="http://www.w3.org/2000/svg"
   xmlns:sodipodi="http://sodipodi.sourceforge.net/DTD/sodipodi-0.dtd"
   xmlns:inkscape="http://www.inkscape.org/namespaces/inkscape"
   width="107.72649"
   height="127.82119"
   viewBox="0 0 26.931622 31.955298"
   version="1.1"
   id="svg8"
   inkscape:version="0.92.4 (5da689c313, 2019-01-14)"
   sodipodi:docname="logo-white.svg"
   inkscape:export-filename="C:\Users\v1ctor\Documents\getrix-logo.png"
   inkscape:export-xdpi="96"
   inkscape:export-ydpi="96">
  <defs
     id="defs2" />
  <sodipodi:namedview
     id="base"
     pagecolor="#ffffff"
     bordercolor="#666666"
     borderopacity="1.0"
     inkscape:pageopacity="0.0"
     inkscape:pageshadow="2"
     inkscape:zoom="5.6"
     inkscape:cx="26.646331"
     inkscape:cy="61.709081"
     inkscape:document-units="px"
     inkscape:current-layer="layer1"
     showgrid="false"
     inkscape:window-width="1920"
     inkscape:window-height="1017"
     inkscape:window-x="-8"
     inkscape:window-y="-8"
     inkscape:window-maximized="1"
     showguides="true"
     fit-margin-top="0"
     fit-margin-left="0"
     fit-margin-right="0"
     fit-margin-bottom="0"
     units="px"
     scale-x="0.1" />
  <metadata
     id="metadata5">
    <rdf:RDF>
      <cc:Work
         rdf:about="">
        <dc:format>image/svg+xml</dc:format>
        <dc:type
           rdf:resource="http://purl.org/dc/dcmitype/StillImage" />
        <dc:title />
      </cc:Work>
    </rdf:RDF>
  </metadata>
  <g
     inkscape:label="Camada 1"
     inkscape:groupmode="layer"
     id="layer1"
     style="display:inline"
     transform="translate(-12.505301,-12.743265)">
    <rect
       style="opacity:1;fill:#ffffff;fill-opacity:0;stroke:none;stroke-width:0.47244096;stroke-linecap:round;stroke-linejoin:round;stroke-miterlimit:4;stroke-dasharray:none;stroke-opacity:1;paint-order:stroke markers fill"
       id="rect840"
       width="20.962284"
       height="18.391037"
       x="16.944803"
       y="17.245026" />
    <rect
       style="opacity:1;fill:#ffffff;fill-opacity:0.24279836;stroke:none;stroke-width:1;stroke-linecap:round;stroke-linejoin:round;stroke-miterlimit:4;stroke-dasharray:none;stroke-opacity:0.5020576;paint-order:stroke markers fill"
       id="rect844"
       width="20.515856"
       height="19.06068"
       x="16.944803"
       y="17.245026" />
    <path
       style="opacity:1;fill:#000000;fill-opacity:1;stroke:none;stroke-width:4.00000007;stroke-linecap:round;stroke-linejoin:round;stroke-miterlimit:4;stroke-dasharray:none;stroke-opacity:0.50205761;paint-order:stroke markers fill"
       d="M 4.7910156 5.1640625 L 4.7910156 102.9375 L 102.56641 102.9375 L 102.56641 5.1640625 L 4.7910156 5.1640625 z M 28.267578 28.267578 L 42.689453 28.267578 L 42.689453 42.689453 L 28.267578 42.689453 L 28.267578 28.267578 z M 46.652344 28.267578 L 61.074219 28.267578 L 61.074219 42.689453 L 46.652344 42.689453 L 46.652344 28.267578 z M 65.037109 28.267578 L 79.457031 28.267578 L 79.457031 42.689453 L 65.037109 42.689453 L 65.037109 28.267578 z M 83.421875 28.267578 L 97.841797 28.267578 L 97.841797 42.689453 L 83.421875 42.689453 L 83.421875 28.267578 z M 28.267578 46.652344 L 42.689453 46.652344 L 42.689453 61.074219 L 28.267578 61.074219 L 28.267578 46.652344 z M 28.267578 65.037109 L 42.689453 65.037109 L 42.689453 79.457031 L 28.267578 79.457031 L 28.267578 65.037109 z M 46.652344 65.037109 L 61.074219 65.037109 L 61.074219 79.457031 L 46.652344 79.457031 L 46.652344 65.037109 z M 65.037109 65.037109 L 79.457031 65.037109 L 79.457031 79.457031 L 65.037109 79.457031 L 65.037109 65.037109 z "
       transform="matrix(0.25,0,0,0.25,12.505301,12.743265)"
       id="rect817" />
    <g
       id="g893"
       style="fill:#ff0000"
       transform="matrix(0.1677922,-0.04495979,0.04495979,0.1677922,7.9839828,15.853097)">
      <rect
         style="opacity:1;fill:#ff0000;fill-opacity:1;stroke:none;stroke-width:0.09378077;stroke-linecap:round;stroke-linejoin:round;stroke-miterlimit:4;stroke-dasharray:none;stroke-opacity:1;paint-order:stroke markers fill"
         id="rect819"
         width="20.753607"
         height="20.753607"
         x="21.29464"
         y="21.090921" />
      <rect
         y="21.090921"
         x="47.752975"
         height="20.753607"
         width="20.753607"
         id="rect821"
         style="opacity:1;fill:#ff0000;fill-opacity:1;stroke:none;stroke-width:0.09378077;stroke-linecap:round;stroke-linejoin:round;stroke-miterlimit:4;stroke-dasharray:none;stroke-opacity:1;paint-order:stroke markers fill" />
      <rect
         style="opacity:1;fill:#ff0000;fill-opacity:1;stroke:none;stroke-width:0.09378077;stroke-linecap:round;stroke-linejoin:round;stroke-miterlimit:4;stroke-dasharray:none;stroke-opacity:1;paint-order:stroke markers fill"
         id="rect823"
         width="20.753607"
         height="20.753607"
         x="74.211311"
         y="21.090921" />
      <rect
         y="21.090921"
         x="100.66963"
         height="20.753607"
         width="20.753607"
         id="rect825"
         style="opacity:1;fill:#ff0000;fill-opacity:1;stroke:none;stroke-width:0.09378077;stroke-linecap:round;stroke-linejoin:round;stroke-miterlimit:4;stroke-dasharray:none;stroke-opacity:1;paint-order:stroke markers fill" />
      <rect
         style="opacity:1;fill:#ff0000;fill-opacity:1;stroke:none;stroke-width:0.09378077;stroke-linecap:round;stroke-linejoin:round;stroke-miterlimit:4;stroke-dasharray:none;stroke-opacity:1;paint-order:stroke markers fill"
         id="rect827"
         width="20.753607"
         height="20.753607"
         x="127.12797"
         y="21.090921" />
      <rect
         y="47.549255"
         x="21.29464"
         height="20.753607"
         width="20.753607"
         id="rect831"
         style="opacity:1;fill:#ff0000;fill-opacity:1;stroke:none;stroke-width:0.09378077;stroke-linecap:round;stroke-linejoin:round;stroke-miterlimit:4;stroke-dasharray:none;stroke-opacity:1;paint-order:stroke markers fill" />
      <rect
         style="opacity:1;fill:#ff0000;fill-opacity:1;stroke:none;stroke-width:0.09378077;stroke-linecap:round;stroke-linejoin:round;stroke-miterlimit:4;stroke-dasharray:none;stroke-opacity:1;paint-order:stroke markers fill"
         id="rect833"
         width="20.753607"
         height="20.753607"
         x="21.29464"
         y="74.007591" />
      <rect
         y="100.46591"
         x="21.29464"
         height="20.753607"
         width="20.753607"
         id="rect835"
         style="opacity:1;fill:#ff0000;fill-opacity:1;stroke:none;stroke-width:0.09378077;stroke-linecap:round;stroke-linejoin:round;stroke-miterlimit:4;stroke-dasharray:none;stroke-opacity:1;paint-order:stroke markers fill" />
      <rect
         style="opacity:1;fill:#ff0000;fill-opacity:1;stroke:none;stroke-width:0.09378077;stroke-linecap:round;stroke-linejoin:round;stroke-miterlimit:4;stroke-dasharray:none;stroke-opacity:1;paint-order:stroke markers fill"
         id="rect837"
         width="20.753607"
         height="20.753607"
         x="21.29464"
         y="126.92425" />
      <rect
         y="126.92425"
         x="21.29464"
         height="20.753607"
         width="20.753607"
         id="rect839"
         style="opacity:1;fill:#ff0000;fill-opacity:1;stroke:none;stroke-width:0.09378077;stroke-linecap:round;stroke-linejoin:round;stroke-miterlimit:4;stroke-dasharray:none;stroke-opacity:1;paint-order:stroke markers fill" />
      <rect
         style="opacity:1;fill:#ff0000;fill-opacity:1;stroke:none;stroke-width:0.09378077;stroke-linecap:round;stroke-linejoin:round;stroke-miterlimit:4;stroke-dasharray:none;stroke-opacity:1;paint-order:stroke markers fill"
         id="rect841"
         width="20.753607"
         height="20.753607"
         x="47.752975"
         y="126.92425" />
      <rect
         y="126.92425"
         x="74.211311"
         height="20.753607"
         width="20.753607"
         id="rect843"
         style="opacity:1;fill:#ff0000;fill-opacity:1;stroke:none;stroke-width:0.09378077;stroke-linecap:round;stroke-linejoin:round;stroke-miterlimit:4;stroke-dasharray:none;stroke-opacity:1;paint-order:stroke markers fill" />
      <rect
         style="opacity:1;fill:#ff0000;fill-opacity:1;stroke:none;stroke-width:0.09378077;stroke-linecap:round;stroke-linejoin:round;stroke-miterlimit:4;stroke-dasharray:none;stroke-opacity:1;paint-order:stroke markers fill"
         id="rect845"
         width="20.753607"
         height="20.753607"
         x="100.66963"
         y="126.92425" />
      <rect
         y="126.92425"
         x="127.12797"
         height="20.753607"
         width="20.753607"
         id="rect847"
         style="opacity:1;fill:#ff0000;fill-opacity:1;stroke:none;stroke-width:0.09378077;stroke-linecap:round;stroke-linejoin:round;stroke-miterlimit:4;stroke-dasharray:none;stroke-opacity:1;paint-order:stroke markers fill" />
      <rect
         style="opacity:1;fill:#ff0000;fill-opacity:1;stroke:none;stroke-width:0.09378077;stroke-linecap:round;stroke-linejoin:round;stroke-miterlimit:4;stroke-dasharray:none;stroke-opacity:1;paint-order:stroke markers fill"
         id="rect849"
         width="20.753607"
         height="20.753607"
         x="127.12797"
         y="100.46593" />
      <rect
         y="74.007607"
         x="127.12797"
         height="20.753607"
         width="20.753607"
         id="rect851"
         style="opacity:1;fill:#ff0000;fill-opacity:1;stroke:none;stroke-width:0.09378077;stroke-linecap:round;stroke-linejoin:round;stroke-miterlimit:4;stroke-dasharray:none;stroke-opacity:1;paint-order:stroke markers fill" />
      <rect
         style="opacity:1;fill:#ff0000;fill-opacity:1;stroke:none;stroke-width:0.09378077;stroke-linecap:round;stroke-linejoin:round;stroke-miterlimit:4;stroke-dasharray:none;stroke-opacity:1;paint-order:stroke markers fill"
         id="rect853"
         width="20.753607"
         height="20.753607"
         x="100.66965"
         y="74.007607" />
      <rect
         y="74.007607"
         x="74.211327"
         height="20.753607"
         width="20.753607"
         id="rect855"
         style="opacity:1;fill:#ff0000;fill-opacity:1;stroke:none;stroke-width:0.09378077;stroke-linecap:round;stroke-linejoin:round;stroke-miterlimit:4;stroke-dasharray:none;stroke-opacity:1;paint-order:stroke markers fill" />
    </g>
    <g
       aria-label="getrix"
       transform="matrix(0.26458333,0,0,0.26458333,0,-0.52916667)"
       style="font-style:normal;font-weight:normal;font-size:24px;line-height:125%;font-family:sans-serif;letter-spacing:7.30999994px;word-spacing:0px;fill:#ffffff;fill-opacity:1;stroke:#ffffff;stroke-width:1px;stroke-linecap:butt;stroke-linejoin:miter;stroke-opacity:1"
       id="flowRoot1011">
      <path
         d="m 62.396484,156.30273 q 0,0.41016 -0.117187,0.59766 -0.105469,0.17578 -0.28125,0.17578 h -1.511719 q 0.410156,0.42188 0.574219,0.9375 0.164062,0.50391 0.164062,1.05469 0,0.91406 -0.292968,1.61719 -0.292969,0.70312 -0.84375,1.19531 -0.539063,0.48047 -1.289063,0.73828 -0.75,0.25781 -1.664062,0.25781 -0.644532,0 -1.230469,-0.16406 -0.574219,-0.17578 -0.890625,-0.43359 -0.210938,0.21093 -0.351563,0.48047 -0.128906,0.26953 -0.128906,0.62109 0,0.41016 0.375,0.67969 0.386719,0.26953 1.019531,0.29297 l 2.753907,0.11718 q 0.785156,0.0234 1.441406,0.22266 0.65625,0.1875 1.136719,0.55078 0.480468,0.35156 0.75,0.87891 0.269531,0.51562 0.269531,1.20703 0,0.72656 -0.304688,1.38281 -0.304687,0.65625 -0.9375,1.14844 -0.621093,0.5039 -1.59375,0.78515 -0.972656,0.29297 -2.296875,0.29297 -1.277343,0 -2.179687,-0.22265 -0.890625,-0.21094 -1.464844,-0.58594 -0.574219,-0.375 -0.832031,-0.90234 -0.257813,-0.51563 -0.257813,-1.125 0,-0.38672 0.09375,-0.75 0.09375,-0.36329 0.28125,-0.69141 0.199219,-0.32813 0.480469,-0.62109 0.292969,-0.30469 0.667969,-0.59766 -0.574219,-0.29297 -0.855469,-0.73828 -0.269531,-0.44531 -0.269531,-0.96094 0,-0.71484 0.292969,-1.27734 0.292968,-0.5625 0.726562,-1.00782 -0.363281,-0.43359 -0.574219,-0.97265 -0.210937,-0.55078 -0.210937,-1.32422 0,-0.90234 0.304687,-1.61719 0.304688,-0.71484 0.84375,-1.20703 0.539063,-0.49219 1.289063,-0.75 0.761719,-0.26953 1.652344,-0.26953 0.480468,0 0.890625,0.0586 0.421875,0.0469 0.785156,0.14063 h 3.1875 q 0.199219,0 0.292969,0.19922 0.105468,0.1875 0.105468,0.58593 z m -3.023437,2.77735 q 0,-1.07813 -0.597656,-1.67578 -0.585938,-0.60938 -1.675782,-0.60938 -0.5625,0 -0.984375,0.1875 -0.410156,0.1875 -0.691406,0.51563 -0.269531,0.32812 -0.410156,0.76172 -0.128906,0.42187 -0.128906,0.89062 0,1.04297 0.585937,1.64063 0.597656,0.59765 1.664063,0.59765 0.574218,0 0.996093,-0.17578 0.421875,-0.1875 0.691407,-0.50391 0.28125,-0.32812 0.410156,-0.75 0.140625,-0.42187 0.140625,-0.8789 z m 0.972656,8.35547 q 0,-0.67969 -0.5625,-1.04297 -0.550781,-0.375 -1.5,-0.39844 l -2.730469,-0.0937 q -0.375,0.29297 -0.621093,0.5625 -0.234375,0.25781 -0.375,0.49219 -0.140625,0.24609 -0.199219,0.48047 -0.04687,0.23437 -0.04687,0.48047 0,0.76171 0.773437,1.14843 0.773438,0.39844 2.15625,0.39844 0.878907,0 1.464844,-0.17578 0.597656,-0.16406 0.960938,-0.44531 0.363281,-0.28125 0.515625,-0.64453 0.164062,-0.36329 0.164062,-0.76172 z"
         style="font-style:normal;font-variant:normal;font-weight:normal;font-stretch:normal;font-family:Calibri;-inkscape-font-specification:Calibri;letter-spacing:7.30999994px;fill:#ffffff;stroke:#ffffff;stroke-opacity:1"
         id="path1019" />
      <path
         d="m 81.003359,160.63867 q 0,0.45703 -0.234375,0.65625 -0.222656,0.1875 -0.515625,0.1875 h -6.914063 q 0,0.87891 0.175782,1.58203 0.175781,0.70313 0.585937,1.20703 0.410156,0.50391 1.066406,0.77344 0.65625,0.26953 1.605469,0.26953 0.75,0 1.335938,-0.11718 0.585937,-0.12891 1.007812,-0.28125 0.433594,-0.15235 0.703125,-0.26954 0.28125,-0.1289 0.421875,-0.1289 0.08203,0 0.140625,0.0469 0.07031,0.0352 0.105469,0.11719 0.03516,0.082 0.04687,0.23438 0.02344,0.14062 0.02344,0.35156 0,0.15234 -0.01172,0.26953 -0.01172,0.10547 -0.03516,0.19922 -0.01172,0.082 -0.05859,0.15234 -0.03516,0.0703 -0.105469,0.14063 -0.05859,0.0586 -0.375,0.21093 -0.316406,0.14063 -0.820313,0.28125 -0.503906,0.14063 -1.171875,0.2461 -0.65625,0.11719 -1.40625,0.11719 -1.300781,0 -2.285156,-0.36329 -0.972656,-0.36328 -1.640625,-1.07812 -0.667969,-0.71484 -1.007812,-1.79297 -0.339844,-1.07812 -0.339844,-2.50781 0,-1.35938 0.351562,-2.4375 0.351563,-1.08985 1.007813,-1.83985 0.667969,-0.76171 1.605469,-1.16015 0.9375,-0.41016 2.097656,-0.41016 1.242187,0 2.109375,0.39844 0.878906,0.39844 1.441406,1.07812 0.5625,0.66797 0.820313,1.58204 0.269531,0.90234 0.269531,1.93359 z m -1.945313,-0.57422 q 0.03516,-1.52343 -0.679687,-2.39062 -0.703125,-0.86719 -2.097656,-0.86719 -0.714844,0 -1.253907,0.26953 -0.539062,0.26953 -0.902343,0.71485 -0.363282,0.44531 -0.5625,1.04296 -0.199219,0.58594 -0.222657,1.23047 z"
         style="font-style:normal;font-variant:normal;font-weight:normal;font-stretch:normal;font-family:Calibri;-inkscape-font-specification:Calibri;letter-spacing:7.30999994px;fill:#ffffff;stroke:#ffffff;stroke-opacity:1"
         id="path1021" />
      <path
         d="m 96.610233,165.5957 q 0,0.33985 -0.04687,0.53907 -0.04687,0.19921 -0.140625,0.29296 -0.09375,0.0937 -0.28125,0.17579 -0.1875,0.082 -0.433593,0.1289 -0.234375,0.0586 -0.503907,0.0937 -0.269531,0.0352 -0.539062,0.0352 -0.820313,0 -1.40625,-0.21094 -0.585938,-0.22266 -0.960938,-0.65625 -0.375,-0.44531 -0.550781,-1.11328 -0.164062,-0.67969 -0.164062,-1.59375 v -6.16406 h -1.476563 q -0.175781,0 -0.28125,-0.1875 -0.105469,-0.1875 -0.105469,-0.60938 0,-0.22265 0.02344,-0.375 0.03516,-0.15234 0.08203,-0.24609 0.04687,-0.10547 0.117188,-0.14063 0.08203,-0.0469 0.175781,-0.0469 h 1.464844 v -2.50781 q 0,-0.082 0.03516,-0.15235 0.04687,-0.0703 0.152344,-0.11719 0.117187,-0.0586 0.304687,-0.082 0.1875,-0.0234 0.46875,-0.0234 0.292969,0 0.480469,0.0234 0.1875,0.0234 0.292969,0.082 0.105468,0.0469 0.152343,0.11719 0.04687,0.0703 0.04687,0.15235 v 2.50781 h 2.707032 q 0.09375,0 0.164062,0.0469 0.07031,0.0352 0.117188,0.14063 0.05859,0.0937 0.08203,0.24609 0.02344,0.15235 0.02344,0.375 0,0.42188 -0.105468,0.60938 -0.105469,0.1875 -0.28125,0.1875 h -2.707032 v 5.88281 q 0,1.08984 0.316407,1.65234 0.328125,0.55078 1.160156,0.55078 0.269531,0 0.480469,-0.0469 0.210937,-0.0586 0.375,-0.11719 0.164062,-0.0586 0.28125,-0.10547 0.117187,-0.0586 0.210937,-0.0586 0.05859,0 0.105469,0.0352 0.05859,0.0234 0.08203,0.10546 0.03516,0.082 0.05859,0.22266 0.02344,0.14063 0.02344,0.35156 z"
         style="font-style:normal;font-variant:normal;font-weight:normal;font-stretch:normal;font-family:Calibri;-inkscape-font-specification:Calibri;letter-spacing:7.30999994px;fill:#ffffff;stroke:#ffffff;stroke-opacity:1"
         id="path1023" />
      <path
         d="m 112.66242,156.51367 q 0,0.25781 -0.0117,0.4336 -0.0117,0.17578 -0.0469,0.28125 -0.0352,0.0937 -0.0937,0.15234 -0.0469,0.0469 -0.14063,0.0469 -0.0937,0 -0.23437,-0.0469 -0.12891,-0.0586 -0.30469,-0.10547 -0.16406,-0.0586 -0.375,-0.10547 -0.21094,-0.0469 -0.45703,-0.0469 -0.29297,0 -0.57422,0.11718 -0.28125,0.11719 -0.59766,0.38672 -0.30468,0.26953 -0.64453,0.71485 -0.33984,0.44531 -0.75,1.08984 v 6.9375 q 0,0.0937 -0.0469,0.16406 -0.0469,0.0586 -0.15235,0.10547 -0.10546,0.0469 -0.29296,0.0703 -0.1875,0.0234 -0.48047,0.0234 -0.28125,0 -0.46875,-0.0234 -0.1875,-0.0234 -0.30469,-0.0703 -0.10547,-0.0469 -0.15234,-0.10547 -0.0352,-0.0703 -0.0352,-0.16406 v -10.54687 q 0,-0.0937 0.0352,-0.15235 0.0352,-0.0703 0.14062,-0.11719 0.10547,-0.0586 0.26953,-0.0703 0.16406,-0.0234 0.4336,-0.0234 0.25781,0 0.42187,0.0234 0.17578,0.0117 0.26953,0.0703 0.0937,0.0469 0.12891,0.11719 0.0469,0.0586 0.0469,0.15235 v 1.53515 q 0.4336,-0.63281 0.8086,-1.03125 0.38672,-0.39844 0.72656,-0.62109 0.33984,-0.23438 0.66797,-0.31641 0.33984,-0.0937 0.67969,-0.0937 0.15234,0 0.33984,0.0234 0.19922,0.0117 0.41016,0.0586 0.21093,0.0469 0.375,0.10547 0.17578,0.0586 0.24609,0.11719 0.0703,0.0586 0.0937,0.11719 0.0234,0.0469 0.0352,0.1289 0.0234,0.082 0.0234,0.2461 0.0117,0.15234 0.0117,0.42187 z"
         style="font-style:normal;font-variant:normal;font-weight:normal;font-stretch:normal;font-family:Calibri;-inkscape-font-specification:Calibri;letter-spacing:7.30999994px;fill:#ffffff;stroke:#ffffff;stroke-opacity:1"
         id="path1025" />
      <path
         d="m 124.13258,166.36914 q 0,0.0937 -0.0469,0.16406 -0.0469,0.0586 -0.15234,0.10547 -0.10547,0.0469 -0.29297,0.0703 -0.1875,0.0234 -0.48047,0.0234 -0.28125,0 -0.46875,-0.0234 -0.1875,-0.0234 -0.30469,-0.0703 -0.10547,-0.0469 -0.15234,-0.10547 -0.0352,-0.0703 -0.0352,-0.16406 v -10.54687 q 0,-0.082 0.0352,-0.15235 0.0469,-0.0703 0.15234,-0.11719 0.11719,-0.0469 0.30469,-0.0703 0.1875,-0.0234 0.46875,-0.0234 0.29297,0 0.48047,0.0234 0.1875,0.0234 0.29297,0.0703 0.10547,0.0469 0.15234,0.11719 0.0469,0.0703 0.0469,0.15235 z m 0.22265,-14.10937 q 0,0.67968 -0.25781,0.92578 -0.25781,0.24609 -0.94922,0.24609 -0.67969,0 -0.9375,-0.23437 -0.24609,-0.2461 -0.24609,-0.91407 0,-0.67968 0.25781,-0.92578 0.25781,-0.24609 0.94922,-0.24609 0.67969,0 0.92578,0.24609 0.25781,0.23438 0.25781,0.90235 z"
         style="font-style:normal;font-variant:normal;font-weight:normal;font-stretch:normal;font-family:Calibri;-inkscape-font-specification:Calibri;letter-spacing:7.30999994px;fill:#ffffff;stroke:#ffffff;stroke-opacity:1"
         id="path1027" />
      <path
         d="m 143.03242,166.14648 q 0.0937,0.16407 0.0937,0.28125 0,0.10547 -0.11718,0.17579 -0.10547,0.0703 -0.33985,0.0937 -0.22265,0.0351 -0.58593,0.0351 -0.35157,0 -0.5625,-0.0234 -0.19922,-0.0117 -0.32813,-0.0469 -0.11719,-0.0469 -0.1875,-0.10547 -0.0586,-0.0703 -0.10547,-0.15234 l -2.53125,-4.1836 -2.51953,4.1836 q -0.0469,0.082 -0.11719,0.15234 -0.0586,0.0586 -0.1875,0.10547 -0.11718,0.0352 -0.3164,0.0469 -0.19922,0.0234 -0.52735,0.0234 -0.33984,0 -0.5625,-0.0351 -0.21093,-0.0234 -0.3164,-0.0937 -0.0937,-0.0703 -0.0937,-0.17579 0.0117,-0.11718 0.11718,-0.28125 l 3.28125,-5.14453 -3.10546,-4.95703 q -0.0937,-0.16406 -0.10547,-0.26953 0,-0.11719 0.10547,-0.1875 0.11718,-0.082 0.33984,-0.10547 0.23437,-0.0234 0.60937,-0.0234 0.33985,0 0.53907,0.0234 0.21093,0.0117 0.32812,0.0469 0.11719,0.0351 0.17578,0.0937 0.0586,0.0586 0.10547,0.14062 l 2.40235,3.92578 2.4375,-3.92578 q 0.0469,-0.0703 0.10546,-0.1289 0.0586,-0.0586 0.15235,-0.0937 0.10547,-0.0469 0.28125,-0.0586 0.1875,-0.0234 0.5039,-0.0234 0.33985,0 0.55079,0.0234 0.22265,0.0234 0.32812,0.0937 0.10547,0.0586 0.0937,0.17578 -0.0117,0.11719 -0.11719,0.29297 l -3.08203,4.89844 z"
         style="font-style:normal;font-variant:normal;font-weight:normal;font-stretch:normal;font-family:Calibri;-inkscape-font-specification:Calibri;letter-spacing:7.30999994px;fill:#ffffff;stroke:#ffffff;stroke-opacity:1"
         id="path1029" />
    </g>
  </g>
</svg>
